<?xml version="1.0" encoding="UTF-8" standalone="no"?>
<!DOCTYPE svg PUBLIC "-//W3C//DTD SVG 1.1//EN" "http://www.w3.org/Graphics/SVG/1.1/DTD/svg11.dtd">
<svg width="100%" height="100%" viewBox="0 0 105 148" version="1.1" xmlns="http://www.w3.org/2000/svg" xmlns:xlink="http://www.w3.org/1999/xlink" xml:space="preserve" xmlns:serif="http://www.serif.com/" style="fill-rule:evenodd;clip-rule:evenodd;stroke-linejoin:round;stroke-miterlimit:2;">
    <g transform="matrix(3.125,0,0,3.125,677.5,1148.75)">
        <g id="Icon-Location">
            <path id="Fill-55" d="M-200,-320.3L-200.9,-321.4C-201.5,-322.2 -216.8,-340.1 -216.8,-350.8C-216.8,-360.1 -209.2,-367.6 -200,-367.6C-190.8,-367.6 -183.2,-360 -183.2,-350.8C-183.2,-340.1 -198.5,-322.1 -199.1,-321.4L-200,-320.3ZM-200,-365.3C-208,-365.3 -214.4,-358.8 -214.4,-350.9C-214.4,-342.5 -203.3,-328.2 -200,-324.1C-196.7,-328.2 -185.6,-342.4 -185.6,-350.9C-185.6,-358.8 -192,-365.3 -200,-365.3Z" style="fill:white;fill-rule:nonzero;"/>
            <path id="Fill-56" d="M-200,-344.4C-203.5,-344.4 -206.4,-347.3 -206.4,-350.8C-206.4,-354.3 -203.5,-357.2 -200,-357.2C-196.5,-357.2 -193.6,-354.3 -193.6,-350.8C-193.6,-347.3 -196.5,-344.4 -200,-344.4ZM-200,-354.8C-202.2,-354.8 -204,-353 -204,-350.8C-204,-348.6 -202.2,-346.8 -200,-346.8C-197.8,-346.8 -196,-348.6 -196,-350.8C-196,-353 -197.8,-354.8 -200,-354.8Z" style="fill:white;fill-rule:nonzero;"/>
        </g>
    </g>
</svg>
