<?xml version="1.0" encoding="UTF-8" standalone="no"?>
<!DOCTYPE svg PUBLIC "-//W3C//DTD SVG 1.1//EN" "http://www.w3.org/Graphics/SVG/1.1/DTD/svg11.dtd">
<svg width="100%" height="100%" viewBox="0 0 201 191" version="1.1" xmlns="http://www.w3.org/2000/svg" xmlns:xlink="http://www.w3.org/1999/xlink" xml:space="preserve" xmlns:serif="http://www.serif.com/" style="fill-rule:evenodd;clip-rule:evenodd;stroke-linejoin:round;stroke-miterlimit:2;">
    <g transform="matrix(3.125,0,0,3.125,-0.0167394,-4.90725)">
        <path d="M61.6,44.1L52.3,38.2C49.9,36.9 47,37.4 45.4,39.5L43.3,42.7C31.3,35.5 23.8,25.9 20.9,21.6L24.4,19.5C25.5,18.7 26.3,17.6 26.5,16.3C26.8,15 26.5,13.6 25.7,12.6L19.6,3.8C18,1.7 15.1,0.9 12.9,2.2L4,7C3.5,7.3 3.2,7.5 2.7,7.8C-4,15 2.1,31.3 17.6,45.9C28.8,56.6 40.8,62.4 49.3,62.4C52.5,62.4 55.2,61.6 57,60C57.3,59.7 57.8,59.2 58.1,58.9L63.2,50.9C64.8,48.6 64,45.4 61.6,44.1ZM53.6,56C49,59.8 34.7,55 21.1,42.2C7.7,29.4 2.7,15.8 6.7,11.5L15,6.7L20.9,15.2L17.4,17.3C16.3,18.1 15.5,19.2 15.3,20.5C15,21.8 15.3,23.2 16.1,24.2C19,28.5 27.3,39.4 40.4,47.4C42.8,48.7 45.7,48.2 47.3,46.1L49.7,42.6L58.8,48.2L53.6,56Z" style="fill:white;fill-rule:nonzero;"/>
    </g>
</svg>
